# xmcd CD database file
#
# Track frame offsets:
#	150
#	1512
#	46935
#	85055
#	116832
#	158217
#	195867
#	216615
#	239412
#	311877
#
# Disc length: 4418 seconds
#
# Revision: 2
# Processed by: cddbd v1.4PL0 Copyright (c) Steve Scherf et al.
# Submitted via: Feurio! 1.65 - http://www.feurio.com
#
DISCID=7d11400a
DTITLE=Canned Heat - Live At The Turku Rock Festival Finland
DYEAR=1971
DGENRE=Blues
TTITLE0=Introduction
TTITLE1=She Don't Want Me No More
TTITLE2=Let's Work Together
TTITLE3=On The Road Again
TTITLE4=That's All Right
TTITLE5=Hill Stomp
TTITLE6=Long Way From L.A.
TTITLE7=Watch Yourself
TTITLE8=Canned Heat Boogie
TTITLE9=Late night Blues
EXTD=Bear Tracks BTCD 979409
EXTT0=
EXTT1=
EXTT2=
EXTT3=
EXTT4=
EXTT5=
EXTT6=
EXTT7=
EXTT8=
EXTT9=
PLAYORDER=
